<svg xmlns="http://www.w3.org/2000/svg" viewBox="0 0 192 192" role="img" aria-label="LJP">
  <rect width="192" height="192" rx="42" fill="#3b2618"/>
  <rect x="11" y="11" width="170" height="170" rx="35" fill="none" stroke="#c8914d" stroke-width="10"/>
  <g fill="#f8f3ea">
    <rect x="28" y="53" width="8" height="12" rx="2"/>
    <rect x="28" y="65" width="8" height="12" rx="2"/>
    <rect x="28" y="77" width="8" height="12" rx="2"/>
    <rect x="28" y="89" width="8" height="12" rx="2"/>
    <rect x="28" y="101" width="8" height="12" rx="2"/>
    <rect x="28" y="113" width="8" height="12" rx="2"/>
    <rect x="28" y="125" width="8" height="12" rx="2"/>
    <rect x="36" y="125" width="8" height="12" rx="2"/>
    <rect x="44" y="125" width="8" height="12" rx="2"/>
    <rect x="52" y="125" width="8" height="12" rx="2"/>
    <rect x="60" y="125" width="8" height="12" rx="2"/>
    <rect x="76" y="53" width="8" height="12" rx="2"/>
    <rect x="84" y="53" width="8" height="12" rx="2"/>
    <rect x="92" y="53" width="8" height="12" rx="2"/>
    <rect x="100" y="53" width="8" height="12" rx="2"/>
    <rect x="108" y="53" width="8" height="12" rx="2"/>
    <rect x="92" y="65" width="8" height="12" rx="2"/>
    <rect x="92" y="77" width="8" height="12" rx="2"/>
    <rect x="92" y="89" width="8" height="12" rx="2"/>
    <rect x="92" y="101" width="8" height="12" rx="2"/>
    <rect x="76" y="113" width="8" height="12" rx="2"/>
    <rect x="92" y="113" width="8" height="12" rx="2"/>
    <rect x="76" y="125" width="8" height="12" rx="2"/>
    <rect x="84" y="125" width="8" height="12" rx="2"/>
    <rect x="92" y="125" width="8" height="12" rx="2"/>
    <rect x="124" y="53" width="8" height="12" rx="2"/>
    <rect x="132" y="53" width="8" height="12" rx="2"/>
    <rect x="140" y="53" width="8" height="12" rx="2"/>
    <rect x="148" y="53" width="8" height="12" rx="2"/>
    <rect x="124" y="65" width="8" height="12" rx="2"/>
    <rect x="156" y="65" width="8" height="12" rx="2"/>
    <rect x="124" y="77" width="8" height="12" rx="2"/>
    <rect x="156" y="77" width="8" height="12" rx="2"/>
    <rect x="124" y="89" width="8" height="12" rx="2"/>
    <rect x="132" y="89" width="8" height="12" rx="2"/>
    <rect x="140" y="89" width="8" height="12" rx="2"/>
    <rect x="148" y="89" width="8" height="12" rx="2"/>
    <rect x="124" y="101" width="8" height="12" rx="2"/>
    <rect x="124" y="113" width="8" height="12" rx="2"/>
    <rect x="124" y="125" width="8" height="12" rx="2"/>
  </g>
</svg>
